<?xml version="1.0" encoding="utf-8"?>
<!-- Generator: Adobe Illustrator 27.3.1, SVG Export Plug-In . SVG Version: 6.00 Build 0)  -->
<svg version="1.1" id="Layer_1" xmlns="http://www.w3.org/2000/svg" xmlns:xlink="http://www.w3.org/1999/xlink" x="0px" y="0px"
	 viewBox="0 0 44.17 18.83" style="enable-background:new 0 0 44.17 18.83;" xml:space="preserve">
<style type="text/css">
	.st0{fill:#02437D;}
	.st1{fill:#90C736;}
</style>
<g>
	<g>
		<path class="st0" d="M0.9,3.56c0-1.97,0.97-2.96,2.92-2.96c1.95,0,2.92,0.99,2.92,2.96v1.82H5.01V3.56c0-0.83-0.39-1.25-1.18-1.26
			H3.81c-0.79,0-1.18,0.42-1.18,1.26v1.39c0,0.75,0.72,1.65,2.16,2.67c1.3,0.93,1.95,2.04,1.95,3.33v1.92
			c0,1.98-0.97,2.97-2.91,2.97c-1.95,0-2.93-0.99-2.93-2.97v-1.82h1.73v1.82c0,0.84,0.4,1.26,1.2,1.26c0.79,0,1.18-0.42,1.18-1.26
			v-1.74c0-0.81-0.72-1.73-2.16-2.76C1.55,7.45,0.9,6.32,0.9,4.99V3.56z"/>
		<path class="st0" d="M10.12,7.63L10,7.64v7.96h1.73V7.28C11.2,7.42,10.66,7.54,10.12,7.63z M7.94,0.85v1.7H10v2.72
			c0.15-0.03,0.31-0.06,0.46-0.09c0.33-0.07,0.64-0.15,0.94-0.24c0.11-0.03,0.22-0.06,0.33-0.1V2.55h2.05v-1.7H7.94z"/>
		<path class="st0" d="M23,0.85h1.77l2.5,10.6V0.88l1.57-0.02V15.6h-1.77L24.64,5.26V15.6H23V0.85z"/>
		<path class="st0" d="M35.52,7.37v1.71h-3.01v4.82h3.5v1.7h-5.23V0.85h5.23v1.7h-3.5v4.82H35.52z"/>
		<path class="st0" d="M37.43,3.56c0-1.97,0.97-2.96,2.92-2.96c1.95,0,2.92,0.99,2.92,2.96v1.82h-1.73V3.56
			c0-0.83-0.39-1.25-1.18-1.26h-0.02c-0.79,0-1.18,0.42-1.18,1.26v1.39c0,0.75,0.72,1.65,2.16,2.67c1.3,0.93,1.95,2.04,1.95,3.33
			v1.92c0,1.98-0.97,2.97-2.91,2.97c-1.95,0-2.93-0.99-2.93-2.97v-1.82h1.73v1.82c0,0.84,0.4,1.26,1.2,1.26
			c0.79,0,1.18-0.42,1.18-1.26v-1.74c0-0.81-0.72-1.73-2.16-2.76c-1.3-0.93-1.95-2.06-1.95-3.39V3.56z"/>
	</g>
</g>
<g>
	<g>
		<g>
			<g>
				<g>
					<path class="st1" d="M19.18,5.83c-0.09-0.43-0.35-0.82-0.71-1.07c-0.37-0.26-0.83-0.35-1.26-0.41c-0.46-0.05-0.92-0.05-1.38,0
						c-0.19,0.02-0.39,0.05-0.58,0.08C14.46,4.56,13.67,4.77,12.91,5c-0.4,0.12-0.79,0.24-1.19,0.36c-0.06,0.02-0.12,0.03-0.18,0.05
						c-0.32,0.1-0.64,0.18-0.97,0.25c-0.19,0.05-0.38,0.08-0.58,0.11C9.76,5.8,9.53,5.82,9.29,5.83C9.11,5.84,8.93,5.85,8.75,5.85
						c-0.3-0.01-0.57-0.06-0.86-0.13C7.7,5.67,7.49,5.64,7.3,5.71C7.22,5.73,7.14,5.78,7.09,5.85c-0.08,0.11-0.08,0.27-0.03,0.4
						c0.02,0.04,0.05,0.09,0.08,0.13c0.05,0.07,0.11,0.13,0.18,0.18c0.46,0.36,0.98,0.6,1.55,0.65c0.06,0.01,0.12,0.01,0.18,0.01
						c0.3,0,0.61-0.04,0.9-0.08h0.04c0.01-0.01,0.02-0.01,0.04-0.01c0.57-0.09,1.13-0.22,1.69-0.37c1.19-0.3,2.36-0.69,3.55-0.95
						c0.49-0.11,1.06-0.18,1.45,0.14c0.28,0.23,0.39,0.61,0.63,0.88c0.22,0.25,0.54,0.4,0.87,0.4c0.32-0.01,0.65-0.18,0.83-0.45
						C19.23,6.5,19.25,6.15,19.18,5.83z M13.5,5.4c-0.99,0.32-1.99,0.65-3.03,0.77c-0.35,0.04-0.7,0.06-1.04,0.05
						c2.75-0.17,5.32-2.07,8.13-1.36C16.17,4.67,14.81,4.98,13.5,5.4z"/>
				</g>
			</g>
			<path class="st0" d="M17.41,10.35c0.18,0.2,0.24,0.42,0.23,0.67c-0.01,0.27-0.01,0.55,0,0.82c0,0.26,0.12,0.44,0.31,0.49
				c0.34,0.1,0.62-0.1,0.62-0.41c0-0.33,0.01-0.66,0.01-0.99c0-0.11,0.01-0.22,0.03-0.32c0.01-0.05,0.05-0.09,0.08-0.13
				c0.16-0.16,0.28-0.34,0.31-0.57c0.07-0.54-0.33-1.01-0.97-1.01c-0.29,0.01-0.57,0.18-0.74,0.52
				C17.12,9.76,17.16,10.08,17.41,10.35z"/>
			<g>
				<path class="st1" d="M21.22,6.68v2.6c0,1.1,0,2.21-0.01,3.31c0,0.29-0.02,0.58-0.07,0.87c-0.22,1.15-0.9,1.9-2.03,2.22
					c-0.53,0.15-1.07,0.17-1.61,0.08c-0.77-0.13-1.42-0.45-1.89-1.08c-0.4-0.55-0.58-1.18-0.59-1.85V6.45
					c0-0.03,0.04-0.08,0.07-0.09c0.34-0.12,0.7-0.17,1.06-0.11c0.24,0.04,0.45,0.23,0.46,0.46c0.01,0.08,0.01,0.17,0.01,0.25v2.07
					c0.01,0.14,0.01,0.27,0.01,0.41c0.01,1.19,0.01,2.38,0.01,3.57c0.01,0.37,0.17,0.68,0.43,0.95c0.43,0.46,1.3,0.46,1.76,0.21
					c0.52-0.27,0.75-0.74,0.76-1.31c0.02-1.17,0.01-2.34,0.01-3.52V6.68c0-0.73,0.01-1.47,0-2.2c0-0.36,0-0.72-0.03-1.08
					c-0.05-0.62-0.49-1.12-1.08-1.23c-0.17-0.04-0.35-0.04-0.53-0.04c-0.46,0.02-0.83,0.21-1.08,0.61c-0.19,0.28-0.25,0.6-0.26,0.94
					c0,0.1-0.03,0.14-0.14,0.15c-0.27,0.01-0.53,0.04-0.79,0.06c-0.22,0.03-0.44,0.06-0.67,0.09c-0.04-0.78,0.09-1.5,0.53-2.12
					c0.46-0.64,1.08-1,1.85-1.14c0.58-0.11,1.16-0.1,1.72,0.06c1.37,0.41,2.05,1.44,2.09,2.79C21.24,4.6,21.22,5.65,21.22,6.68z"/>
			</g>
		</g>
	</g>
</g>
<g>
	<g>
		<path class="st0" d="M1.87,17.43H1.12v0.25h0.4v0.18h-0.4v0.37H0.9v-0.96h0.97V17.43z"/>
		<path class="st0" d="M4.43,18c0,0.09-0.02,0.15-0.05,0.18s-0.1,0.05-0.19,0.05H3.48c-0.09,0-0.15-0.02-0.19-0.05
			C3.26,18.15,3.24,18.09,3.24,18v-0.51c0-0.09,0.02-0.15,0.05-0.18c0.03-0.03,0.1-0.05,0.19-0.05h0.71c0.09,0,0.15,0.02,0.19,0.05
			s0.05,0.09,0.05,0.18V18z M4.2,18.04v-0.61H3.47v0.61H4.2z"/>
		<path class="st0" d="M7.16,18.22H6.84l-0.39-0.36H6.24v0.36H6.02v-0.96h0.82c0.14,0,0.22,0.06,0.22,0.19v0.23
			c0,0.09-0.04,0.15-0.11,0.17c-0.03,0.01-0.11,0.01-0.23,0.01L7.16,18.22z M6.84,17.62V17.5c0-0.03-0.01-0.05-0.03-0.06
			c-0.01-0.01-0.04-0.01-0.07-0.01h-0.5v0.27h0.5c0.03,0,0.06,0,0.07-0.01C6.83,17.67,6.84,17.65,6.84,17.62z"/>
		<path class="st0" d="M11.6,18.22h-0.25l-0.12-0.21h-0.61l-0.11,0.21h-0.22l0.54-0.96h0.22L11.6,18.22z M11.14,17.84l-0.21-0.39
			l-0.21,0.39H11.14z"/>
		<path class="st0" d="M13.97,18.22h-0.94v-0.96h0.22v0.78h0.72V18.22z"/>
		<path class="st0" d="M16.46,18c0,0.09-0.02,0.15-0.05,0.18s-0.1,0.05-0.19,0.05h-0.61c-0.09,0-0.15-0.02-0.19-0.05
			c-0.03-0.03-0.05-0.09-0.05-0.18v-0.73h0.22v0.78h0.64v-0.78h0.22V18z"/>
		<path class="st0" d="M19.33,18.22h-0.21v-0.6c0-0.02,0-0.05,0.01-0.1c-0.01,0.02-0.03,0.06-0.06,0.1l-0.36,0.48h-0.04l-0.36-0.48
			c-0.03-0.03-0.05-0.07-0.06-0.1c0,0.04,0.01,0.07,0.01,0.1v0.6h-0.18v-0.96h0.18l0.45,0.58l0.44-0.58h0.18V18.22z"/>
		<path class="st0" d="M21.14,18.22h-0.22v-0.96h0.22V18.22z"/>
		<path class="st0" d="M23.88,18.22h-0.15l-0.71-0.59c-0.03-0.02-0.06-0.05-0.08-0.08c0.01,0.06,0.01,0.11,0.01,0.15v0.53h-0.2
			v-0.96h0.15l0.68,0.57c0.05,0.04,0.09,0.08,0.11,0.1c-0.01-0.09-0.01-0.15-0.01-0.17v-0.5h0.2V18.22z"/>
		<path class="st0" d="M26.57,18c0,0.09-0.02,0.15-0.05,0.18s-0.1,0.05-0.19,0.05h-0.61c-0.09,0-0.15-0.02-0.19-0.05
			c-0.03-0.03-0.05-0.09-0.05-0.18v-0.73h0.22v0.78h0.64v-0.78h0.22V18z"/>
		<path class="st0" d="M29.43,18.22h-0.21v-0.6c0-0.02,0-0.05,0.01-0.1c-0.01,0.02-0.03,0.06-0.06,0.1l-0.36,0.48h-0.04l-0.36-0.48
			c-0.03-0.03-0.05-0.07-0.06-0.1c0,0.04,0.01,0.07,0.01,0.1v0.6h-0.18v-0.96h0.18l0.45,0.58l0.44-0.58h0.18V18.22z"/>
		<path class="st0" d="M34.09,18.22h-0.29l-0.16-0.13c-0.07,0.06-0.11,0.1-0.12,0.1c-0.03,0.02-0.08,0.03-0.15,0.03h-0.34
			c-0.11,0-0.18-0.02-0.21-0.07c-0.02-0.03-0.03-0.11-0.03-0.22c0-0.05,0.01-0.08,0.03-0.11c0.01-0.02,0.04-0.04,0.09-0.07l0.2-0.12
			c-0.04-0.03-0.06-0.06-0.07-0.09c-0.01-0.02-0.01-0.06-0.01-0.11c0-0.07,0.02-0.12,0.07-0.15c0.03-0.02,0.09-0.03,0.17-0.03h0.19
			c0.09,0,0.14,0.01,0.18,0.03c0.04,0.03,0.06,0.08,0.06,0.16v0.06l-0.17,0.03v-0.13H33.2v0.07l0.45,0.38l0.22-0.19L34,17.78
			l-0.22,0.18L34.09,18.22z M33.51,17.98l-0.29-0.24l-0.25,0.15v0.16h0.45L33.51,17.98z"/>
		<path class="st0" d="M38.4,17.66c0,0.12-0.07,0.19-0.22,0.19h-0.6v0.37h-0.22v-0.96h0.82c0.14,0,0.22,0.06,0.22,0.19V17.66z
			 M38.18,17.61v-0.1c0-0.03-0.01-0.05-0.03-0.06c-0.01-0.01-0.04-0.01-0.07-0.01h-0.5v0.26h0.5c0.03,0,0.06,0,0.07-0.01
			C38.17,17.66,38.18,17.64,38.18,17.61z"/>
		<path class="st0" d="M40.87,17.26l-0.53,0.96h-0.16l-0.55-0.96h0.25l0.39,0.69l0.37-0.69H40.87z"/>
		<path class="st0" d="M43.28,18c0,0.09-0.02,0.15-0.05,0.18s-0.1,0.05-0.19,0.05h-0.57c-0.09,0-0.15-0.02-0.19-0.05
			c-0.03-0.03-0.05-0.09-0.05-0.18v-0.51c0-0.09,0.02-0.15,0.05-0.18c0.03-0.03,0.1-0.05,0.19-0.05h0.57c0.11,0,0.19,0.03,0.21,0.08
			c0.02,0.03,0.03,0.11,0.03,0.24l-0.22,0.04v-0.18h-0.6v0.61h0.6v-0.21l0.22,0.05V18z"/>
	</g>
</g>
</svg>
